<?xml version="1.0" standalone="no"?>
<!DOCTYPE svg PUBLIC "-//W3C//DTD SVG 20010904//EN"
 "http://www.w3.org/TR/2001/REC-SVG-20010904/DTD/svg10.dtd">
<svg version="1.0" xmlns="http://www.w3.org/2000/svg"
 width="97.000000pt" height="97.000000pt" viewBox="0 0 97.000000 97.000000"
 preserveAspectRatio="xMidYMid meet">
<metadata>
Created by potrace 1.14, written by Peter Selinger 2001-2017
</metadata>
<g transform="translate(0.000000,97.000000) scale(0.100000,-0.100000)"
fill="#000000" stroke="none">
<path d="M350 951 c-126 -39 -150 -76 -106 -164 14 -29 41 -70 60 -92 19 -22
47 -64 62 -93 39 -77 36 -133 -11 -252 -46 -117 -53 -166 -31 -224 16 -42 78
-115 100 -117 112 -12 140 17 150 161 9 116 23 158 72 207 50 50 91 63 199 63
124 0 123 0 119 78 -2 36 -6 68 -9 71 -3 3 -51 -10 -105 -28 -119 -40 -187
-44 -245 -14 -22 12 -48 29 -57 40 -30 33 -55 101 -57 159 -2 56 -30 148 -59
192 -15 23 -38 26 -82 13z"/>
<path d="M566 949 c6 -8 32 -46 57 -85 63 -96 111 -127 196 -128 41 -1 65 3
68 11 8 22 -118 136 -187 170 -76 37 -152 55 -134 32z"/>
<path d="M93 767 c-86 -126 -109 -277 -63 -427 16 -53 71 -160 83 -160 1 0 3
19 4 42 1 29 18 76 51 143 62 123 64 133 46 202 -14 54 -78 211 -92 225 -4 4
-17 -7 -29 -25z"/>
<path d="M862 352 c-32 -9 -62 -26 -84 -49 -32 -33 -33 -36 -32 -114 1 -44 5
-84 11 -90 17 -17 121 100 159 177 19 39 34 76 34 82 0 13 -23 12 -88 -6z"/>
</g>
</svg>
